<svg width="15" height="17" viewBox="0 0 15 17" fill="none" xmlns="http://www.w3.org/2000/svg">
<g clip-path="url(#clip0_1280_16212)">
<path d="M12.5481 2.21207H12.3513V0.872512C12.3513 0.730152 12.2368 0.615234 12.0962 0.615234H2.88544C2.74483 0.615234 2.6303 0.730152 2.6303 0.872512V2.21207H2.43355C1.36194 2.21207 0.490479 3.09082 0.490479 4.17138V5.72248C0.490479 6.20044 0.57496 6.65954 0.741655 7.08719C1.31261 8.55882 2.38593 9.50617 3.56583 9.59994C4.27684 10.8028 5.24922 11.6599 6.32707 12.0183V12.9337C6.32707 13.076 6.4416 13.191 6.58222 13.191H6.66216V13.7341C5.30762 13.9834 4.36756 14.8158 4.36189 15.7855C4.36189 15.7883 4.36132 15.7912 4.36132 15.7946C4.36132 15.9015 4.42539 15.9924 4.51724 16.0319C4.54729 16.045 4.58131 16.0525 4.61646 16.0525C4.61646 16.0525 4.6176 16.0525 4.61817 16.0525H10.3635C10.3635 16.0525 10.3646 16.0525 10.3652 16.0525C10.4003 16.0525 10.4338 16.045 10.4644 16.0319C10.5563 15.993 10.6203 15.9015 10.6203 15.7946C10.6203 15.7917 10.6198 15.7889 10.6198 15.7855C10.6135 14.8158 9.67345 13.9828 8.31891 13.7341V13.1915H8.39885C8.53947 13.1915 8.654 13.0766 8.654 12.9343V12.0189C9.73185 11.6604 10.7042 10.8034 11.4152 9.60051C12.5951 9.50674 13.6685 8.55939 14.2394 7.08834C14.4061 6.66011 14.4906 6.20101 14.4906 5.72305V4.17195C14.4906 3.09139 13.6186 2.21264 12.547 2.21264L12.5481 2.21207ZM7.80862 13.6575H7.17302V13.215H7.80862V13.6575ZM10.0743 15.5373H4.90733C5.07516 14.9181 5.83379 14.387 6.8351 14.2246C7.25524 14.1543 7.72584 14.1543 8.14768 14.2246C9.14785 14.387 9.90648 14.9181 10.0743 15.5373ZM11.841 1.12979V1.7301H3.14059V1.12979H11.841ZM1.21679 6.89967C1.07334 6.53147 1.00077 6.13584 1.00077 5.72248V4.17138C1.00077 3.37439 1.64317 2.72662 2.43355 2.72662H2.6303V6.41027C2.6303 7.11978 2.75617 7.80414 3.00451 8.44333C3.08332 8.64572 3.17007 8.84011 3.26079 9.02935C2.41428 8.80752 1.65678 8.03226 1.21679 6.89967ZM8.14371 12.211V12.677H6.83793V12.211H8.14371ZM8.1369 11.6296C7.71563 11.7182 7.26771 11.7182 6.84644 11.6296C5.44767 11.3391 4.18952 10.0773 3.48135 8.25523C3.25626 7.67607 3.14229 7.0546 3.14229 6.40969V2.24466H11.8428V6.40969C11.8428 7.05518 11.7288 7.67607 11.5037 8.25523C10.7955 10.0773 9.53737 11.3386 8.13861 11.6296H8.1369ZM13.9809 5.72248C13.9809 6.13584 13.9083 6.53147 13.7648 6.89967C13.3254 8.03169 12.5674 8.80695 11.7208 9.02878C11.8121 8.83954 11.8989 8.64515 11.9771 8.44276C12.2255 7.803 12.3513 7.11921 12.3513 6.40969V2.72662H12.5481C13.3379 2.72662 13.9809 3.37439 13.9809 4.17138V5.72248Z" fill="#E7C23F"/>
</g>
<defs>
<clipPath id="clip0_1280_16212">
<rect width="14.0007" height="15.4366" fill="white" transform="translate(0.490479 0.615234)"/>
</clipPath>
</defs>
</svg>
